<svg width="222" height="64" viewBox="0 0 222 64" fill="none" xmlns="http://www.w3.org/2000/svg">
<rect x="0.5" y="0.5" width="63" height="63" rx="7.5" fill="#013453" stroke="#013453"/>
<ellipse cx="32.2688" cy="18.3606" rx="5.37815" ry="5.2459" fill="white"/>
<ellipse cx="46.252" cy="18.3606" rx="5.37815" ry="5.2459" fill="white"/>
<ellipse cx="18.2855" cy="18.3606" rx="5.37815" ry="5.2459" fill="white"/>
<ellipse cx="18.2855" cy="31.9999" rx="5.37815" ry="5.2459" fill="white"/>
<ellipse cx="32.2688" cy="31.9999" rx="5.37815" ry="5.2459" fill="white"/>
<ellipse cx="46.252" cy="31.9999" rx="5.37815" ry="5.2459" fill="white"/>
<ellipse cx="46.252" cy="45.6393" rx="5.37815" ry="5.2459" fill="white"/>
<ellipse cx="32.2688" cy="45.6393" rx="5.37815" ry="5.2459" fill="white"/>
<ellipse cx="18.2855" cy="45.6393" rx="5.37815" ry="5.2459" fill="white"/>
<path d="M26.0839 38.0328C24.578 36.5639 23.843 33.3989 23.6637 32.2623L18.5545 37.2459C19.8094 37.4207 22.7495 38.1901 24.4705 39.8688C26.1915 41.5475 26.801 44.4153 26.8906 45.377L31.731 40.3934C30.6553 40.1311 27.5898 39.5016 26.0839 38.0328Z" fill="white"/>
<path d="M40.0671 38.0328C38.5612 36.5639 37.8262 33.3989 37.647 32.2623L32.5377 37.2459C33.7926 37.4207 36.7327 38.1901 38.4537 39.8688C40.1747 41.5475 40.7842 44.4153 40.8739 45.377L45.7142 40.3934C44.6386 40.1311 41.573 39.5016 40.0671 38.0328Z" fill="white"/>
<path d="M24.2015 24.3934C25.7074 22.9246 26.7113 19.4973 26.8906 18.3607L31.731 23.6066C30.4761 23.7814 27.8049 24.5508 26.0839 26.2295C24.3629 27.9082 23.7534 31.0383 23.6637 32L18.5545 26.7541C19.6301 26.4918 22.6957 25.8623 24.2015 24.3934Z" fill="white"/>
<path d="M38.1848 24.3934C39.6906 22.9246 40.6946 19.4973 40.8738 18.3607L45.7142 23.6066C44.4593 23.7814 41.7881 24.5508 40.0671 26.2295C38.3461 27.9082 37.7366 31.0383 37.6469 32L32.5377 26.7541C33.6133 26.4918 36.6789 25.8623 38.1848 24.3934Z" fill="white"/>
<path d="M85.84 13.18C85.84 14.78 85.5333 16.12 84.92 17.2C84.3067 18.28 83.4133 19.0933 82.24 19.64C81.08 20.1867 79.68 20.46 78.04 20.46H74V6.18001H78.48C79.9733 6.18001 81.2667 6.44668 82.36 6.98001C83.4667 7.51334 84.32 8.30001 84.92 9.34001C85.5333 10.3667 85.84 11.6467 85.84 13.18ZM82.7 13.26C82.7 12.2067 82.5467 11.34 82.24 10.66C81.9333 9.98001 81.4733 9.48001 80.86 9.16001C80.26 8.82668 79.52 8.66001 78.64 8.66001H77.02V17.96H78.32C79.8 17.96 80.9 17.5667 81.62 16.78C82.34 15.9933 82.7 14.82 82.7 13.26Z" fill="#013453"/>
<path d="M98.5847 9.54001V20.46H96.3047L95.9047 19.06H95.7447C95.518 19.4333 95.2247 19.74 94.8647 19.98C94.518 20.2067 94.1314 20.3733 93.7047 20.48C93.278 20.6 92.838 20.66 92.3847 20.66C91.6114 20.66 90.9314 20.52 90.3447 20.24C89.758 19.96 89.3047 19.5267 88.9847 18.94C88.6647 18.3533 88.5047 17.5933 88.5047 16.66V9.54001H91.4847V15.92C91.4847 16.6933 91.6247 17.28 91.9047 17.68C92.1847 18.08 92.6314 18.28 93.2447 18.28C93.858 18.28 94.3314 18.14 94.6647 17.86C95.0114 17.58 95.2514 17.1733 95.3847 16.64C95.5314 16.1067 95.6047 15.4533 95.6047 14.68V9.54001H98.5847Z" fill="#013453"/>
<path d="M104.689 8.80001C104.689 9.21334 104.676 9.62001 104.649 10.02C104.623 10.42 104.596 10.7333 104.569 10.96H104.689C104.983 10.5067 105.376 10.1267 105.869 9.82001C106.363 9.50001 107.003 9.34001 107.789 9.34001C109.016 9.34001 110.009 9.82001 110.769 10.78C111.529 11.7267 111.909 13.1267 111.909 14.98C111.909 16.22 111.729 17.2667 111.369 18.12C111.023 18.96 110.536 19.5933 109.909 20.02C109.283 20.4467 108.549 20.66 107.709 20.66C106.909 20.66 106.276 20.52 105.809 20.24C105.356 19.9467 104.983 19.62 104.689 19.26H104.489L103.989 20.46H101.709V5.26001H104.689V8.80001ZM106.829 11.72C106.309 11.72 105.896 11.8267 105.589 12.04C105.283 12.2533 105.056 12.58 104.909 13.02C104.776 13.4467 104.703 13.9867 104.689 14.64V14.96C104.689 16.0133 104.843 16.8267 105.149 17.4C105.469 17.96 106.043 18.24 106.869 18.24C107.483 18.24 107.969 17.96 108.329 17.4C108.689 16.8267 108.869 16.0067 108.869 14.94C108.869 13.8733 108.683 13.0733 108.309 12.54C107.949 11.9933 107.456 11.72 106.829 11.72Z" fill="#013453"/>
<path d="M118.845 9.32001C120.312 9.32001 121.432 9.64001 122.205 10.28C122.992 10.9067 123.385 11.8733 123.385 13.18V20.46H121.305L120.725 18.98H120.645C120.339 19.3667 120.019 19.6867 119.685 19.94C119.365 20.1933 118.992 20.3733 118.565 20.48C118.152 20.6 117.639 20.66 117.025 20.66C116.385 20.66 115.805 20.54 115.285 20.3C114.779 20.0467 114.379 19.6667 114.085 19.16C113.792 18.64 113.645 17.9867 113.645 17.2C113.645 16.04 114.052 15.1867 114.865 14.64C115.679 14.08 116.899 13.7733 118.525 13.72L120.425 13.66V13.18C120.425 12.6067 120.272 12.1867 119.965 11.92C119.672 11.6533 119.259 11.52 118.725 11.52C118.192 11.52 117.672 11.6 117.165 11.76C116.659 11.9067 116.152 12.0933 115.645 12.32L114.665 10.3C115.252 9.99334 115.899 9.75334 116.605 9.58001C117.325 9.40668 118.072 9.32001 118.845 9.32001ZM119.265 15.44C118.305 15.4667 117.639 15.64 117.265 15.96C116.892 16.28 116.705 16.7 116.705 17.22C116.705 17.6733 116.839 18 117.105 18.2C117.372 18.3867 117.719 18.48 118.145 18.48C118.785 18.48 119.325 18.2933 119.765 17.92C120.205 17.5333 120.425 16.9933 120.425 16.3V15.4L119.265 15.44Z" fill="#013453"/>
<path d="M129.416 9.54001V20.46H126.436V9.54001H129.416ZM127.936 5.26001C128.376 5.26001 128.756 5.36668 129.076 5.58001C129.396 5.78001 129.556 6.16001 129.556 6.72001C129.556 7.26668 129.396 7.64668 129.076 7.86001C128.756 8.07334 128.376 8.18001 127.936 8.18001C127.482 8.18001 127.096 8.07334 126.776 7.86001C126.469 7.64668 126.316 7.26668 126.316 6.72001C126.316 6.16001 126.469 5.78001 126.776 5.58001C127.096 5.36668 127.482 5.26001 127.936 5.26001Z" fill="#013453"/>
<path d="M84.54 39.86L83.5 36.46H78.3L77.26 39.86H74L79.04 25.52H82.74L87.8 39.86H84.54ZM81.74 30.6C81.6733 30.3734 81.5867 30.0867 81.48 29.74C81.3733 29.3934 81.2667 29.04 81.16 28.68C81.0533 28.32 80.9667 28.0067 80.9 27.74C80.8333 28.0067 80.74 28.34 80.62 28.74C80.5133 29.1267 80.4067 29.5 80.3 29.86C80.2067 30.2067 80.1333 30.4534 80.08 30.6L79.06 33.92H82.78L81.74 30.6Z" fill="#013453"/>
<path d="M96.9886 36.62C96.9886 37.3534 96.8153 37.98 96.4686 38.5C96.1219 39.0067 95.6019 39.3934 94.9086 39.66C94.2153 39.9267 93.3553 40.06 92.3286 40.06C91.5686 40.06 90.9153 40.0067 90.3686 39.9C89.8219 39.8067 89.2753 39.6467 88.7286 39.42V36.96C89.3153 37.2267 89.9486 37.4467 90.6286 37.62C91.3086 37.7934 91.9086 37.88 92.4286 37.88C93.0153 37.88 93.4286 37.7934 93.6686 37.62C93.9219 37.4467 94.0486 37.22 94.0486 36.94C94.0486 36.7534 93.9953 36.5867 93.8886 36.44C93.7953 36.2934 93.5819 36.1267 93.2486 35.94C92.9153 35.7534 92.3953 35.5134 91.6886 35.22C91.0086 34.9267 90.4486 34.64 90.0086 34.36C89.5686 34.0667 89.2419 33.72 89.0286 33.32C88.8153 32.9067 88.7086 32.3934 88.7086 31.78C88.7086 30.7667 89.1019 30.0067 89.8886 29.5C90.6753 28.9934 91.7219 28.74 93.0286 28.74C93.7086 28.74 94.3553 28.8067 94.9686 28.94C95.5819 29.0734 96.2153 29.2934 96.8686 29.6L95.9686 31.74C95.6086 31.58 95.2619 31.44 94.9286 31.32C94.5953 31.2 94.2686 31.1067 93.9486 31.04C93.6419 30.9734 93.3219 30.94 92.9886 30.94C92.5486 30.94 92.2153 31 91.9886 31.12C91.7753 31.24 91.6686 31.42 91.6686 31.66C91.6686 31.8334 91.7219 31.9934 91.8286 32.14C91.9486 32.2734 92.1686 32.42 92.4886 32.58C92.8219 32.74 93.3086 32.9534 93.9486 33.22C94.5753 33.4734 95.1153 33.74 95.5686 34.02C96.0219 34.2867 96.3686 34.6267 96.6086 35.04C96.8619 35.44 96.9886 35.9667 96.9886 36.62Z" fill="#013453"/>
<path d="M106.93 36.62C106.93 37.3534 106.757 37.98 106.41 38.5C106.063 39.0067 105.543 39.3934 104.85 39.66C104.157 39.9267 103.297 40.06 102.27 40.06C101.51 40.06 100.857 40.0067 100.31 39.9C99.7633 39.8067 99.2167 39.6467 98.67 39.42V36.96C99.2567 37.2267 99.89 37.4467 100.57 37.62C101.25 37.7934 101.85 37.88 102.37 37.88C102.957 37.88 103.37 37.7934 103.61 37.62C103.863 37.4467 103.99 37.22 103.99 36.94C103.99 36.7534 103.937 36.5867 103.83 36.44C103.737 36.2934 103.523 36.1267 103.19 35.94C102.857 35.7534 102.337 35.5134 101.63 35.22C100.95 34.9267 100.39 34.64 99.95 34.36C99.51 34.0667 99.1833 33.72 98.97 33.32C98.7567 32.9067 98.65 32.3934 98.65 31.78C98.65 30.7667 99.0433 30.0067 99.83 29.5C100.617 28.9934 101.663 28.74 102.97 28.74C103.65 28.74 104.297 28.8067 104.91 28.94C105.523 29.0734 106.157 29.2934 106.81 29.6L105.91 31.74C105.55 31.58 105.203 31.44 104.87 31.32C104.537 31.2 104.21 31.1067 103.89 31.04C103.583 30.9734 103.263 30.94 102.93 30.94C102.49 30.94 102.157 31 101.93 31.12C101.717 31.24 101.61 31.42 101.61 31.66C101.61 31.8334 101.663 31.9934 101.77 32.14C101.89 32.2734 102.11 32.42 102.43 32.58C102.763 32.74 103.25 32.9534 103.89 33.22C104.517 33.4734 105.057 33.74 105.51 34.02C105.963 34.2867 106.31 34.6267 106.55 35.04C106.803 35.44 106.93 35.9667 106.93 36.62Z" fill="#013453"/>
<path d="M119.171 34.38C119.171 35.2867 119.045 36.0934 118.791 36.8C118.551 37.5067 118.198 38.1067 117.731 38.6C117.278 39.08 116.725 39.4467 116.071 39.7C115.418 39.94 114.678 40.06 113.851 40.06C113.091 40.06 112.385 39.94 111.731 39.7C111.091 39.4467 110.538 39.08 110.071 38.6C109.605 38.1067 109.238 37.5067 108.971 36.8C108.718 36.0934 108.591 35.2867 108.591 34.38C108.591 33.1667 108.805 32.1467 109.231 31.32C109.658 30.48 110.271 29.84 111.071 29.4C111.871 28.96 112.818 28.74 113.911 28.74C114.938 28.74 115.845 28.96 116.631 29.4C117.418 29.84 118.038 30.48 118.491 31.32C118.945 32.1467 119.171 33.1667 119.171 34.38ZM111.631 34.38C111.631 35.1 111.705 35.7067 111.851 36.2C112.011 36.68 112.258 37.0467 112.591 37.3C112.925 37.54 113.358 37.66 113.891 37.66C114.425 37.66 114.851 37.54 115.171 37.3C115.505 37.0467 115.745 36.68 115.891 36.2C116.051 35.7067 116.131 35.1 116.131 34.38C116.131 33.66 116.051 33.06 115.891 32.58C115.745 32.1 115.505 31.74 115.171 31.5C114.838 31.26 114.405 31.14 113.871 31.14C113.085 31.14 112.511 31.4134 112.151 31.96C111.805 32.4934 111.631 33.3 111.631 34.38Z" fill="#013453"/>
<path d="M126.074 40.06C124.994 40.06 124.074 39.8667 123.314 39.48C122.554 39.08 121.974 38.4667 121.574 37.64C121.174 36.8134 120.974 35.7534 120.974 34.46C120.974 33.1267 121.201 32.04 121.654 31.2C122.108 30.36 122.734 29.74 123.534 29.34C124.348 28.94 125.281 28.74 126.334 28.74C127.081 28.74 127.728 28.8134 128.274 28.96C128.834 29.1067 129.321 29.28 129.734 29.48L128.854 31.78C128.388 31.5934 127.948 31.44 127.534 31.32C127.134 31.2 126.734 31.14 126.334 31.14C125.814 31.14 125.381 31.2667 125.034 31.52C124.688 31.76 124.428 32.1267 124.254 32.62C124.094 33.1 124.014 33.7067 124.014 34.44C124.014 35.16 124.101 35.76 124.274 36.24C124.461 36.7067 124.728 37.06 125.074 37.3C125.421 37.5267 125.841 37.64 126.334 37.64C126.961 37.64 127.514 37.56 127.994 37.4C128.474 37.2267 128.941 36.9934 129.394 36.7V39.24C128.941 39.5334 128.461 39.74 127.954 39.86C127.461 39.9934 126.834 40.06 126.074 40.06Z" fill="#013453"/>
<path d="M134.888 28.94V39.86H131.908V28.94H134.888ZM133.408 24.66C133.848 24.66 134.228 24.7667 134.548 24.98C134.868 25.18 135.028 25.56 135.028 26.12C135.028 26.6667 134.868 27.0467 134.548 27.26C134.228 27.4734 133.848 27.58 133.408 27.58C132.954 27.58 132.568 27.4734 132.248 27.26C131.941 27.0467 131.788 26.6667 131.788 26.12C131.788 25.56 131.941 25.18 132.248 24.98C132.568 24.7667 132.954 24.66 133.408 24.66Z" fill="#013453"/>
<path d="M142.481 28.72C143.948 28.72 145.068 29.04 145.841 29.68C146.628 30.3067 147.021 31.2734 147.021 32.58V39.86H144.941L144.361 38.38H144.281C143.975 38.7667 143.655 39.0867 143.321 39.34C143.001 39.5934 142.628 39.7734 142.201 39.88C141.788 40 141.275 40.06 140.661 40.06C140.021 40.06 139.441 39.94 138.921 39.7C138.415 39.4467 138.015 39.0667 137.721 38.56C137.428 38.04 137.281 37.3867 137.281 36.6C137.281 35.44 137.688 34.5867 138.501 34.04C139.315 33.48 140.535 33.1734 142.161 33.12L144.061 33.06V32.58C144.061 32.0067 143.908 31.5867 143.601 31.32C143.308 31.0534 142.895 30.92 142.361 30.92C141.828 30.92 141.308 31 140.801 31.16C140.295 31.3067 139.788 31.4934 139.281 31.72L138.301 29.7C138.888 29.3934 139.535 29.1534 140.241 28.98C140.961 28.8067 141.708 28.72 142.481 28.72ZM142.901 34.84C141.941 34.8667 141.275 35.04 140.901 35.36C140.528 35.68 140.341 36.1 140.341 36.62C140.341 37.0734 140.475 37.4 140.741 37.6C141.008 37.7867 141.355 37.88 141.781 37.88C142.421 37.88 142.961 37.6934 143.401 37.32C143.841 36.9334 144.061 36.3934 144.061 35.7V34.8L142.901 34.84Z" fill="#013453"/>
<path d="M154.672 37.68C155.005 37.68 155.325 37.6467 155.632 37.58C155.938 37.5134 156.245 37.4334 156.552 37.34V39.56C156.232 39.6934 155.832 39.8067 155.352 39.9C154.885 40.0067 154.372 40.06 153.812 40.06C153.158 40.06 152.572 39.9534 152.052 39.74C151.545 39.5267 151.138 39.16 150.832 38.64C150.538 38.1067 150.392 37.3734 150.392 36.44V31.18H148.972V29.92L150.612 28.92L151.472 26.62H153.372V28.94H156.432V31.18H153.372V36.44C153.372 36.8534 153.492 37.1667 153.732 37.38C153.972 37.58 154.285 37.68 154.672 37.68Z" fill="#013453"/>
<path d="M161.724 28.94V39.86H158.744V28.94H161.724ZM160.244 24.66C160.684 24.66 161.064 24.7667 161.384 24.98C161.704 25.18 161.864 25.56 161.864 26.12C161.864 26.6667 161.704 27.0467 161.384 27.26C161.064 27.4734 160.684 27.58 160.244 27.58C159.79 27.58 159.404 27.4734 159.084 27.26C158.777 27.0467 158.624 26.6667 158.624 26.12C158.624 25.56 158.777 25.18 159.084 24.98C159.404 24.7667 159.79 24.66 160.244 24.66Z" fill="#013453"/>
<path d="M174.757 34.38C174.757 35.2867 174.631 36.0934 174.377 36.8C174.137 37.5067 173.784 38.1067 173.317 38.6C172.864 39.08 172.311 39.4467 171.657 39.7C171.004 39.94 170.264 40.06 169.437 40.06C168.677 40.06 167.971 39.94 167.317 39.7C166.677 39.4467 166.124 39.08 165.657 38.6C165.191 38.1067 164.824 37.5067 164.557 36.8C164.304 36.0934 164.177 35.2867 164.177 34.38C164.177 33.1667 164.391 32.1467 164.817 31.32C165.244 30.48 165.857 29.84 166.657 29.4C167.457 28.96 168.404 28.74 169.497 28.74C170.524 28.74 171.431 28.96 172.217 29.4C173.004 29.84 173.624 30.48 174.077 31.32C174.531 32.1467 174.757 33.1667 174.757 34.38ZM167.217 34.38C167.217 35.1 167.291 35.7067 167.437 36.2C167.597 36.68 167.844 37.0467 168.177 37.3C168.511 37.54 168.944 37.66 169.477 37.66C170.011 37.66 170.437 37.54 170.757 37.3C171.091 37.0467 171.331 36.68 171.477 36.2C171.637 35.7067 171.717 35.1 171.717 34.38C171.717 33.66 171.637 33.06 171.477 32.58C171.331 32.1 171.091 31.74 170.757 31.5C170.424 31.26 169.991 31.14 169.457 31.14C168.671 31.14 168.097 31.4134 167.737 31.96C167.391 32.4934 167.217 33.3 167.217 34.38Z" fill="#013453"/>
<path d="M183.42 28.74C184.593 28.74 185.533 29.06 186.24 29.7C186.947 30.3267 187.3 31.34 187.3 32.74V39.86H184.32V33.48C184.32 32.6934 184.18 32.1067 183.9 31.72C183.62 31.32 183.173 31.12 182.56 31.12C181.653 31.12 181.033 31.4334 180.7 32.06C180.367 32.6734 180.2 33.56 180.2 34.72V39.86H177.22V28.94H179.5L179.9 30.34H180.06C180.3 29.9667 180.593 29.6667 180.94 29.44C181.287 29.2 181.673 29.0267 182.1 28.92C182.527 28.8 182.967 28.74 183.42 28.74Z" fill="#013453"/>
<path d="M80.7 46.58C80.1267 46.58 79.6133 46.6933 79.16 46.92C78.72 47.1467 78.3467 47.4733 78.04 47.9C77.7333 48.3133 77.5 48.82 77.34 49.42C77.1933 50.02 77.12 50.6933 77.12 51.44C77.12 52.4533 77.24 53.32 77.48 54.04C77.7333 54.7467 78.1267 55.2867 78.66 55.66C79.1933 56.0333 79.8733 56.22 80.7 56.22C81.2867 56.22 81.8667 56.1533 82.44 56.02C83.0267 55.8867 83.66 55.7 84.34 55.46V58C83.7133 58.2533 83.0933 58.44 82.48 58.56C81.8667 58.68 81.18 58.74 80.42 58.74C78.9533 58.74 77.74 58.44 76.78 57.84C75.8333 57.2267 75.1333 56.3733 74.68 55.28C74.2267 54.1733 74 52.8867 74 51.42C74 50.34 74.1467 49.3533 74.44 48.46C74.7333 47.5533 75.16 46.7733 75.72 46.12C76.2933 45.4667 76.9933 44.96 77.82 44.6C78.66 44.24 79.62 44.06 80.7 44.06C81.4067 44.06 82.1133 44.1533 82.82 44.34C83.54 44.5133 84.2267 44.7533 84.88 45.06L83.9 47.52C83.3667 47.2667 82.8267 47.0467 82.28 46.86C81.7467 46.6733 81.22 46.58 80.7 46.58Z" fill="#013453"/>
<path d="M91.6344 47.42C92.6477 47.42 93.5144 47.6133 94.2344 48C94.9677 48.3867 95.5344 48.9467 95.9344 49.68C96.3344 50.4133 96.5344 51.3133 96.5344 52.38V53.82H89.4944C89.521 54.66 89.7677 55.32 90.2344 55.8C90.7144 56.28 91.3744 56.52 92.2144 56.52C92.921 56.52 93.561 56.4533 94.1344 56.32C94.7077 56.1733 95.301 55.9533 95.9144 55.66V57.96C95.381 58.2267 94.8144 58.42 94.2144 58.54C93.6277 58.6733 92.9144 58.74 92.0744 58.74C90.981 58.74 90.0144 58.54 89.1744 58.14C88.3344 57.7267 87.6744 57.1067 87.1944 56.28C86.7144 55.4533 86.4744 54.4133 86.4744 53.16C86.4744 51.88 86.6877 50.82 87.1144 49.98C87.5544 49.1267 88.161 48.4867 88.9344 48.06C89.7077 47.6333 90.6077 47.42 91.6344 47.42ZM91.6544 49.54C91.081 49.54 90.601 49.7267 90.2144 50.1C89.841 50.4733 89.621 51.0533 89.5544 51.84H93.7344C93.7344 51.4 93.6544 51.0067 93.4944 50.66C93.3477 50.3133 93.121 50.04 92.8144 49.84C92.5077 49.64 92.121 49.54 91.6544 49.54Z" fill="#013453"/>
<path d="M105.151 47.42C106.324 47.42 107.264 47.74 107.971 48.38C108.677 49.0067 109.031 50.02 109.031 51.42V58.54H106.051V52.16C106.051 51.3733 105.911 50.7867 105.631 50.4C105.351 50 104.904 49.8 104.291 49.8C103.384 49.8 102.764 50.1133 102.431 50.74C102.097 51.3533 101.931 52.24 101.931 53.4V58.54H98.9508V47.62H101.231L101.631 49.02H101.791C102.031 48.6467 102.324 48.3467 102.671 48.12C103.017 47.88 103.404 47.7067 103.831 47.6C104.257 47.48 104.697 47.42 105.151 47.42Z" fill="#013453"/>
<path d="M116.695 56.36C117.029 56.36 117.349 56.3267 117.655 56.26C117.962 56.1933 118.269 56.1133 118.575 56.02V58.24C118.255 58.3733 117.855 58.4867 117.375 58.58C116.909 58.6867 116.395 58.74 115.835 58.74C115.182 58.74 114.595 58.6333 114.075 58.42C113.569 58.2067 113.162 57.84 112.855 57.32C112.562 56.7867 112.415 56.0533 112.415 55.12V49.86H110.995V48.6L112.635 47.6L113.495 45.3H115.395V47.62H118.455V49.86H115.395V55.12C115.395 55.5333 115.515 55.8467 115.755 56.06C115.995 56.26 116.309 56.36 116.695 56.36Z" fill="#013453"/>
<path d="M126.867 47.42C127.014 47.42 127.187 47.4267 127.387 47.44C127.587 47.4533 127.747 47.4733 127.867 47.5L127.647 50.3C127.554 50.2733 127.414 50.2533 127.227 50.24C127.054 50.2133 126.901 50.2 126.767 50.2C126.381 50.2 126.007 50.2533 125.647 50.36C125.287 50.4533 124.961 50.6067 124.667 50.82C124.387 51.0333 124.161 51.32 123.987 51.68C123.827 52.0267 123.747 52.46 123.747 52.98V58.54H120.767V47.62H123.027L123.467 49.46H123.607C123.821 49.0867 124.087 48.7467 124.407 48.44C124.727 48.1333 125.094 47.8867 125.507 47.7C125.934 47.5133 126.387 47.42 126.867 47.42Z" fill="#013453"/>
<path d="M133.959 47.42C134.972 47.42 135.839 47.6133 136.559 48C137.292 48.3867 137.859 48.9467 138.259 49.68C138.659 50.4133 138.859 51.3133 138.859 52.38V53.82H131.819C131.845 54.66 132.092 55.32 132.559 55.8C133.039 56.28 133.699 56.52 134.539 56.52C135.245 56.52 135.885 56.4533 136.459 56.32C137.032 56.1733 137.625 55.9533 138.239 55.66V57.96C137.705 58.2267 137.139 58.42 136.539 58.54C135.952 58.6733 135.239 58.74 134.399 58.74C133.305 58.74 132.339 58.54 131.499 58.14C130.659 57.7267 129.999 57.1067 129.519 56.28C129.039 55.4533 128.799 54.4133 128.799 53.16C128.799 51.88 129.012 50.82 129.439 49.98C129.879 49.1267 130.485 48.4867 131.259 48.06C132.032 47.6333 132.932 47.42 133.959 47.42ZM133.979 49.54C133.405 49.54 132.925 49.7267 132.539 50.1C132.165 50.4733 131.945 51.0533 131.879 51.84H136.059C136.059 51.4 135.979 51.0067 135.819 50.66C135.672 50.3133 135.445 50.04 135.139 49.84C134.832 49.64 134.445 49.54 133.979 49.54Z" fill="#013453"/>
</svg>
